# xmcd CD database file
#
# Track frame offsets:
#	150
#	14747
#	27810
#	41368
#	55175
#	68117
#	80993
#	94275
#	108419
#	122235
#	135625
#	150217
#	162727
#	176169
#	189562
#	202229
#	215502
#	228888
#	241307
#
# Disc length: 3390 seconds
#
# Revision: 0
# Processed by: cddbd v1.5.2PL0 Copyright (c) Steve Scherf et al.
# Submitted via: CDex 1.70beta2
#
DISCID=110d3c13
DTITLE=Bix Beiderbecke - Giants of Jazz (2)
DYEAR=1900
DGENRE=Jazz
TTITLE0=Goose Pimples: New Orleans Lucky Seven
TTITLE1=Sorry: Bix Beiderbecke and His Gang
TTITLE2=Cryin' All Day: Frankie Trumbauer and His Orchestra
TTITLE3=Since My Best Girl Turned Me Down: Bix Beiderbecke and His Gang
TTITLE4=Three Blind Mice: The Chicago Loopers
TTITLE5=Changes: Paul Whiteman and His Orchestra
TTITLE6=Lonely Melody: Paul Whiteman and His Orchestra
TTITLE7=Mississippi Mud: Frankie Trumbauer and His Orchestra
TTITLE8=Dardanella: Paul Whiteman and His Orchestra
TTITLE9=From Monday On: Paul Whiteman and His Orchestra
TTITLE10=Sugar: Paul Whiteman and His Orchestra
TTITLE11='Tain't So, Honey, 'Tain't So: Paul Whiteman and His Orchestra 
TTITLE12=That's My Weakness Now: Paul Whiteman and His Orchestra
TTITLE13=Because My Baby Don't Mean "Maybe" Now: Paul Whiteman and His Orchestra
TTITLE14=Louisiana: Bix Beiderbecke and His Gang
TTITLE15=Louise: Frankie Trumbauer and His Orchestra
TTITLE16=I Like That: Frankie Trumbauer and His Orchestra
TTITLE17=China Boy: Paul Whiteman and His Orchestra
TTITLE18=Bessie Couldn't Help It: Hoagy Carmichael and His Orchestra 
EXTD=
EXTT0=
EXTT1=
EXTT2=
EXTT3=
EXTT4=
EXTT5=
EXTT6=
EXTT7=
EXTT8=
EXTT9=
EXTT10=
EXTT11=
EXTT12=
EXTT13=
EXTT14=
EXTT15=
EXTT16=
EXTT17=
EXTT18=
PLAYORDER=
